<svg width="12" height="12" viewBox="0 0 12 12" fill="none" xmlns="http://www.w3.org/2000/svg">
<path fill-rule="evenodd" clip-rule="evenodd" d="M12 1C12 0.447715 11.5523 0 11 0H1C0.447715 0 0 0.447715 0 1V3C0 3.55228 0.447715 4 1 4V11C1 11.5523 1.44772 12 2 12H10C10.5523 12 11 11.5523 11 11V4C11.5523 4 12 3.55228 12 3V1ZM10 3H2H1V1H11V3H10ZM2 11V4H10V11H2ZM4.78431 6.08859C4.58944 5.9536 4.32001 5.97288 4.14645 6.14645C3.95118 6.34171 3.95118 6.65829 4.14645 6.85355L6 8.70711L7.85355 6.85355L7.91141 6.78431C8.0464 6.58944 8.02712 6.32001 7.85355 6.14645L7.78431 6.08859C7.58944 5.9536 7.32001 5.97288 7.14645 6.14645L6 7.293L4.85355 6.14645L4.78431 6.08859Z" fill="#F9C206"/>
</svg>
