<svg width="32" height="32" viewBox="0 0 32 32" fill="none" xmlns="http://www.w3.org/2000/svg">
<path fill-rule="evenodd" clip-rule="evenodd" d="M25.0508 5.99111C20.8786 5.77898 17.8617 6.4486 16 8C13.8398 6.45699 10.8225 5.78624 6.94806 5.98775C6.41666 6.01539 5.99997 6.45431 6 6.98643L6.00085 18.9802C6.02366 19.532 6.48948 19.9609 7.04129 19.9381C10.8709 19.7798 13.8572 20.4532 16 21.9583C18.1428 20.4532 21.1291 19.7798 24.9587 19.9381L25 19.9389C25.5523 19.9389 26 19.4912 26 18.939V6.98982C26 6.4573 25.5827 6.0182 25.0508 5.99111ZM7.999 7.954L8.30761 7.95276C11.1418 7.95908 13.3075 8.53462 14.8375 9.62746L15 9.74352V19.137C13.1157 18.3397 10.8921 17.9391 8.33966 17.9165L7.999 17.916V7.954ZM17 19.1367V9.77008L17.2804 9.53644L17.4354 9.4132C18.7106 8.44597 20.8234 7.92859 23.7947 7.95356L24 7.956V17.915L23.6313 17.9156C21.0998 17.9388 18.8824 18.3395 17 19.1367ZM26 23C26 22.4477 25.5523 22 25 22L24.4526 22.0058C21.5478 22.0679 18.8784 22.6271 16.4515 23.6853L15.999 23.889L15.5485 23.6853C12.97 22.5609 10.1176 22 7 22C6.44772 22 6 22.4477 6 23C6 23.5523 6.44772 24 7 24C10.1823 24 13.0292 24.6326 15.5528 25.8944C15.8343 26.0352 16.1657 26.0352 16.4472 25.8944C18.9708 24.6326 21.8177 24 25 24C25.5523 24 26 23.5523 26 23Z" fill="#4B00FF"/>
</svg>
