<svg width="20" height="21" viewBox="0 0 20 21" fill="none" xmlns="http://www.w3.org/2000/svg">
<path fill-rule="evenodd" clip-rule="evenodd" d="M19.0508 0.991112C14.8786 0.778977 11.8617 1.4486 10 3C7.8398 1.45699 4.82248 0.786244 0.94806 0.987748C0.416663 1.01539 -2.82617e-05 1.45431 0 1.98643L0.000852775 13.9802C0.0236563 14.532 0.489476 14.9609 1.04129 14.9381C4.87092 14.7798 7.85715 15.4532 10 16.9583C12.1428 15.4532 15.1291 14.7798 18.9587 14.9381L19 14.9389C19.5523 14.9389 20 14.4912 20 13.939V1.98982C20 1.4573 19.5827 1.0182 19.0508 0.991112ZM1.999 2.954L2.30761 2.95276C5.14179 2.95908 7.30754 3.53462 8.83752 4.62746L9 4.74352V14.137C7.11574 13.3397 4.89207 12.9391 2.33966 12.9165L1.999 12.916V2.954ZM11 14.1367V4.77008L11.2804 4.53644L11.4354 4.4132C12.7106 3.44597 14.8234 2.92859 17.7947 2.95356L18 2.956V12.915L17.6313 12.9156C15.0998 12.9388 12.8824 13.3395 11 14.1367ZM20 18C20 17.4477 19.5523 17 19 17L18.4526 17.0058C15.5478 17.0679 12.8784 17.6271 10.4515 18.6853L9.999 18.889L9.54852 18.6853C6.96997 17.5609 4.11757 17 1 17C0.447715 17 0 17.4477 0 18C0 18.5523 0.447715 19 1 19C4.18233 19 7.02922 19.6326 9.55279 20.8944C9.83431 21.0352 10.1657 21.0352 10.4472 20.8944C12.9708 19.6326 15.8177 19 19 19C19.5523 19 20 18.5523 20 18Z" fill="#4B00FF"/>
</svg>
