<svg width="11" height="11" viewBox="0 0 11 11" fill="none" xmlns="http://www.w3.org/2000/svg">
<path fill-rule="evenodd" clip-rule="evenodd" d="M9.5 5.0029C9.22386 5.0029 9 5.22676 9 5.5029V8.5029C9 8.77904 8.77614 9.0029 8.5 9.0029H1.5C1.22386 9.0029 1 8.77904 1 8.5029V1.5029C1 1.22676 1.22386 1.0029 1.5 1.0029H4.5C4.77614 1.0029 5 0.779042 5 0.502899C5 0.226757 4.77614 0.00289916 4.5 0.00289916H1.5C0.671573 0.00289916 0 0.674472 0 1.5029V8.5029C0 9.33133 0.671573 10.0029 1.5 10.0029H8.5C9.32843 10.0029 10 9.33133 10 8.5029V5.5029C10 5.22676 9.77614 5.0029 9.5 5.0029ZM2 5.3829V7.5029C2 7.77904 2.22386 8.0029 2.5 8.0029H4.62C4.7529 8.00367 4.88064 7.95149 4.975 7.8579L8.435 4.3929L9.855 3.0029C9.94966 2.90902 10.0029 2.78122 10.0029 2.6479C10.0029 2.51458 9.94966 2.38678 9.855 2.2929L7.735 0.147899C7.64112 0.0532428 7.51332 0 7.38 0C7.24668 0 7.11888 0.0532428 7.025 0.147899L5.615 1.5629L2.145 5.0279C2.05141 5.12226 1.99923 5.25 2 5.3829ZM7.38 1.2079L8.795 2.6229L8.085 3.3329L6.67 1.9179L7.38 1.2079ZM3 5.5879L5.965 2.6229L7.38 4.0379L4.415 7.0029H3V5.5879Z" fill="#F9C206"/>
</svg>
