<svg width="20" height="11" viewBox="0 0 20 11" fill="none" xmlns="http://www.w3.org/2000/svg">
<path fill-rule="evenodd" clip-rule="evenodd" d="M18.2887 0.29714C18.6769 -0.0957156 19.31 -0.0995069 19.7029 0.288672C20.0655 0.646991 20.0966 1.21405 19.794 1.60816L19.7113 1.70286L12.7947 8.70286C12.4067 9.09546 11.7822 9.09525 11.394 8.72463L11.3088 8.63253L7.925 4.489L1.70711 10.7071C1.34662 11.0676 0.779392 11.0953 0.387101 10.7903L0.292893 10.7071C-0.0675907 10.3466 -0.0953203 9.77939 0.209705 9.3871L0.292893 9.29289L7.29289 2.29289C7.68159 1.9042 8.30309 1.90632 8.6897 2.27571L8.77453 2.36747L12.154 6.506L18.2887 0.29714Z" fill="#8A9AA8"/>
</svg>
