<svg width="36" height="36" viewBox="0 0 36 36" fill="none" xmlns="http://www.w3.org/2000/svg">
<path fill-rule="evenodd" clip-rule="evenodd" d="M18 0C19.0257 0 19.871 0.77208 19.9865 1.76676L20 2V15.998L34 16C35.1046 16 36 16.8954 36 18C36 19.0257 35.2279 19.871 34.2332 19.9865L34 20L20 19.998V34C20 35.1046 19.1046 36 18 36C16.9743 36 16.129 35.2279 16.0135 34.2332L16 34V19.998L2 20C0.89543 20 0 19.1046 0 18C0 16.9743 0.77208 16.129 1.76676 16.0135L2 16L16 15.998V2C16 0.89543 16.8954 0 18 0Z" fill="#4B00FF"/>
</svg>
