<svg width="10" height="11" viewBox="0 0 10 11" fill="none" xmlns="http://www.w3.org/2000/svg">
<path fill-rule="evenodd" clip-rule="evenodd" d="M4.64645 1.14463C4.84171 0.949349 5.15829 0.949349 5.35355 1.14463L7.85355 3.64484L7.89515 3.69195C8.04766 3.88811 8.0338 4.17175 7.85355 4.35201C7.65829 4.54729 7.34171 4.54729 7.14645 4.35201L5.5 2.70542V7.49881C5.5 7.77498 5.27614 7.99885 5 7.99885C4.74358 7.99885 4.53225 7.80582 4.50336 7.55713L4.5 7.49881V2.70542L2.85355 4.35201C2.65829 4.54729 2.34171 4.54729 2.14645 4.35201C1.9662 4.17175 1.95234 3.88811 2.10485 3.69195L2.14645 3.64484L4.64645 1.14463ZM9.99664 8.44142C9.96775 8.19273 9.75642 7.99969 9.5 7.99969C9.22386 7.99969 9 8.22357 9 8.49974V9.64269L8.99643 9.69662C8.97294 9.8719 8.83672 9.99987 8.68182 9.99987H1.31818L1.27237 9.99611C1.12214 9.97132 1 9.82663 1 9.64269V8.49974L0.996636 8.44142C0.967754 8.19273 0.756418 7.99969 0.5 7.99969C0.223858 7.99969 0 8.22357 0 8.49974V9.64269L0.00257057 9.72799C0.0452069 10.4334 0.613039 11 1.31818 11H8.68182L8.76575 10.9973C9.45929 10.9526 10 10.3586 10 9.64269V8.49974L9.99664 8.44142Z" fill="#2BC322"/>
</svg>
