<svg width="16" height="16" viewBox="0 0 16 16" fill="none" xmlns="http://www.w3.org/2000/svg">
<path fill-rule="evenodd" clip-rule="evenodd" d="M7 0C3.13401 0 0 3.13401 0 7C0 10.866 3.13401 14 7 14C8.57234 14 10.0236 13.4816 11.1922 12.6064L14.2929 15.7071L14.3871 15.7903C14.7794 16.0953 15.3466 16.0676 15.7071 15.7071C16.0976 15.3166 16.0976 14.6834 15.7071 14.2929L12.6064 11.1922C13.4816 10.0236 14 8.57234 14 7C14 3.13401 10.866 0 7 0ZM7 2C9.76142 2 12 4.23858 12 7C12 9.76142 9.76142 12 7 12C4.23858 12 2 9.76142 2 7C2 4.23858 4.23858 2 7 2Z" fill="#8A9AA8"/>
</svg>
