<svg width="21" height="22" viewBox="0 0 21 22" fill="none" xmlns="http://www.w3.org/2000/svg">
<path fill-rule="evenodd" clip-rule="evenodd" d="M18.9 11.66C18.5684 11.2825 18.5684 10.7175 18.9 10.34L20.18 8.9C20.4694 8.57723 20.5178 8.10478 20.3 7.73L18.3 4.27C18.0844 3.8957 17.6529 3.70212 17.23 3.79L15.35 4.17C14.8549 4.27229 14.3614 3.98904 14.2 3.51L13.59 1.68C13.4524 1.27269 13.0699 0.998888 12.64 0.999997H8.64C8.19185 0.976606 7.78299 1.25463 7.64 1.68L7.08 3.51C6.91858 3.98904 6.42505 4.27229 5.93 4.17L4 3.79C3.60034 3.73352 3.20592 3.92285 3 4.27L1 7.73C0.776734 8.10057 0.817086 8.57269 1.1 8.9L2.37 10.34C2.70165 10.7175 2.70165 11.2825 2.37 11.66L1.1 13.1C0.817086 13.4273 0.776734 13.8994 1 14.27L3 17.73C3.21557 18.1043 3.6471 18.2979 4.07 18.21L5.95 17.83C6.44505 17.7277 6.93858 18.011 7.1 18.49L7.71 20.32C7.85299 20.7454 8.26185 21.0234 8.71 21H12.71C13.1399 21.0011 13.5224 20.7273 13.66 20.32L14.27 18.49C14.4314 18.011 14.9249 17.7277 15.42 17.83L17.3 18.21C17.7229 18.2979 18.1544 18.1043 18.37 17.73L20.37 14.27C20.5878 13.8952 20.5394 13.4228 20.25 13.1L18.9 11.66ZM17.41 13L18.21 13.9L16.93 16.12L15.75 15.88C14.2592 15.5753 12.7764 16.4349 12.3 17.88L11.92 19H9.36L9 17.86C8.52362 16.4149 7.04079 15.5553 5.55 15.86L4.37 16.1L3.07 13.89L3.87 12.99C4.88858 11.8512 4.88858 10.1288 3.87 8.99L3.07 8.09L4.35 5.89L5.53 6.13C7.02079 6.43473 8.50362 5.57512 8.98 4.13L9.36 3H11.92L12.3 4.14C12.7764 5.58512 14.2592 6.44473 15.75 6.14L16.93 5.9L18.21 8.12L17.41 9.02C16.4033 10.1557 16.4033 11.8643 17.41 13ZM10.64 7C8.43086 7 6.64 8.79086 6.64 11C6.64 13.2091 8.43086 15 10.64 15C12.8491 15 14.64 13.2091 14.64 11C14.64 9.93913 14.2186 8.92172 13.4684 8.17157C12.7183 7.42142 11.7009 7 10.64 7ZM10.64 13C9.53543 13 8.64 12.1046 8.64 11C8.64 9.89543 9.53543 9 10.64 9C11.7446 9 12.64 9.89543 12.64 11C12.64 12.1046 11.7446 13 10.64 13Z" fill="#8A9AA8"/>
</svg>
