<svg width="10" height="12" viewBox="0 0 10 12" fill="none" xmlns="http://www.w3.org/2000/svg">
<path fill-rule="evenodd" clip-rule="evenodd" d="M5.5 0C6.2797 0 6.92045 0.594888 6.99313 1.35554L7 1.5V2H9.5C9.77614 2 10 2.22386 10 2.5C10 2.74546 9.82312 2.94961 9.58988 2.99194L9.5 3H9V10.5C9 11.2797 8.40511 11.9204 7.64446 11.9931L7.5 12H2.5C1.7203 12 1.07955 11.4051 1.00687 10.6445L1 10.5V3H0.5C0.223858 3 0 2.77614 0 2.5C0 2.25454 0.176875 2.05039 0.410124 2.00806L0.5 2H3V1.5C3 0.720304 3.59489 0.0795513 4.35554 0.00686658L4.5 0H5.5ZM2 3V10.5C2 10.7455 2.17688 10.9496 2.41012 10.9919L2.5 11H7.5C7.74546 11 7.94961 10.8231 7.99194 10.5899L8 10.5V3H2ZM6 1.5V2H4V1.5L4.00806 1.41012C4.05039 1.17688 4.25454 1 4.5 1H5.5L5.58988 1.00806C5.82312 1.05039 6 1.25454 6 1.5Z" fill="#F20D5D"/>
</svg>
